<mxfile host="app.diagrams.net" modified="2023-04-01T03:24:27.402Z" agent="Mozilla/5.0 (Windows NT 10.0; Win64; x64; rv:109.0) Gecko/20100101 Firefox/111.0" etag="Alf5AYGzx--H7t1OJkpv" version="21.1.2" type="device">
  <diagram name="Page-1" id="9f46799a-70d6-7492-0946-bef42562c5a5">
    <mxGraphModel dx="794" dy="670" grid="1" gridSize="10" guides="1" tooltips="1" connect="1" arrows="1" fold="1" page="1" pageScale="1" pageWidth="1100" pageHeight="850" background="none" math="0" shadow="0">
      <root>
        <mxCell id="0" />
        <mxCell id="1" parent="0" />
        <mxCell id="78961159f06e98e8-17" value="Main" style="swimlane;html=1;fontStyle=1;align=center;verticalAlign=top;childLayout=stackLayout;horizontal=1;startSize=26;horizontalStack=0;resizeParent=1;resizeLast=0;collapsible=1;marginBottom=0;swimlaneFillColor=#ffffff;rounded=0;shadow=0;comic=0;labelBackgroundColor=none;strokeWidth=1;fillColor=#d5e8d4;fontFamily=Verdana;fontSize=12;strokeColor=#82b366;" parent="1" vertex="1">
          <mxGeometry x="520" width="160" height="127" as="geometry" />
        </mxCell>
        <mxCell id="78961159f06e98e8-21" value="&lt;div&gt;Initiate Control&lt;/div&gt;&lt;div&gt;Initiate Display&lt;/div&gt;&lt;div&gt;Run Control.event_loop&lt;/div&gt;&lt;div&gt;Get state from control&lt;br&gt;&lt;/div&gt;&lt;div&gt;Run Display.render_loop&lt;br&gt;&lt;/div&gt;" style="text;html=1;strokeColor=none;fillColor=none;align=left;verticalAlign=top;spacingLeft=4;spacingRight=4;whiteSpace=wrap;overflow=hidden;rotatable=0;points=[[0,0.5],[1,0.5]];portConstraint=eastwest;" parent="78961159f06e98e8-17" vertex="1">
          <mxGeometry y="26" width="160" height="94" as="geometry" />
        </mxCell>
        <mxCell id="-t0i3O5oJkL6AfwVkczq-73" style="edgeStyle=orthogonalEdgeStyle;rounded=0;orthogonalLoop=1;jettySize=auto;html=1;exitX=1.019;exitY=0.071;exitDx=0;exitDy=0;exitPerimeter=0;" parent="1" source="-t0i3O5oJkL6AfwVkczq-3" target="78961159f06e98e8-17" edge="1">
          <mxGeometry relative="1" as="geometry" />
        </mxCell>
        <mxCell id="-t0i3O5oJkL6AfwVkczq-3" value="Control" style="swimlane;html=1;fontStyle=1;align=center;verticalAlign=top;childLayout=stackLayout;horizontal=1;startSize=26;horizontalStack=0;resizeParent=1;resizeLast=0;collapsible=1;marginBottom=0;swimlaneFillColor=#ffffff;rounded=0;shadow=0;comic=0;labelBackgroundColor=none;strokeWidth=1;fillColor=#d5e8d4;fontFamily=Verdana;fontSize=12;strokeColor=#82b366;" parent="1" vertex="1">
          <mxGeometry x="270" y="230" width="160" height="210" as="geometry" />
        </mxCell>
        <mxCell id="-t0i3O5oJkL6AfwVkczq-4" value="Creates state dict and manages different states.&amp;nbsp; Runs event loop that passes commands to states." style="text;html=1;strokeColor=none;fillColor=none;align=left;verticalAlign=top;spacingLeft=4;spacingRight=4;whiteSpace=wrap;overflow=hidden;rotatable=0;points=[[0,0.5],[1,0.5]];portConstraint=eastwest;" parent="-t0i3O5oJkL6AfwVkczq-3" vertex="1">
          <mxGeometry y="26" width="160" height="74" as="geometry" />
        </mxCell>
        <mxCell id="-t0i3O5oJkL6AfwVkczq-6" value="" style="line;html=1;strokeWidth=1;fillColor=none;align=left;verticalAlign=middle;spacingTop=-1;spacingLeft=3;spacingRight=3;rotatable=0;labelPosition=right;points=[];portConstraint=eastwest;" parent="-t0i3O5oJkL6AfwVkczq-3" vertex="1">
          <mxGeometry y="100" width="160" height="8" as="geometry" />
        </mxCell>
        <mxCell id="-t0i3O5oJkL6AfwVkczq-7" value="&lt;div&gt;Event Loop&lt;/div&gt;&lt;div&gt;Change State&lt;br&gt;&lt;/div&gt;" style="text;html=1;strokeColor=none;fillColor=none;align=left;verticalAlign=top;spacingLeft=4;spacingRight=4;whiteSpace=wrap;overflow=hidden;rotatable=0;points=[[0,0.5],[1,0.5]];portConstraint=eastwest;" parent="-t0i3O5oJkL6AfwVkczq-3" vertex="1">
          <mxGeometry y="108" width="160" height="102" as="geometry" />
        </mxCell>
        <mxCell id="vRC7jIJlFKvEMgXPobcm-9" style="edgeStyle=orthogonalEdgeStyle;rounded=0;orthogonalLoop=1;jettySize=auto;html=1;" edge="1" parent="1" source="-t0i3O5oJkL6AfwVkczq-18">
          <mxGeometry relative="1" as="geometry">
            <mxPoint x="630" y="130" as="targetPoint" />
          </mxGeometry>
        </mxCell>
        <mxCell id="vRC7jIJlFKvEMgXPobcm-10" style="edgeStyle=orthogonalEdgeStyle;rounded=0;orthogonalLoop=1;jettySize=auto;html=1;" edge="1" parent="1" source="-t0i3O5oJkL6AfwVkczq-18">
          <mxGeometry relative="1" as="geometry">
            <mxPoint x="750" y="140" as="targetPoint" />
            <Array as="points">
              <mxPoint x="680" y="250" />
              <mxPoint x="750" y="250" />
            </Array>
          </mxGeometry>
        </mxCell>
        <mxCell id="-t0i3O5oJkL6AfwVkczq-18" value="Data" style="swimlane;html=1;fontStyle=1;align=center;verticalAlign=top;childLayout=stackLayout;horizontal=1;startSize=26;horizontalStack=0;resizeParent=1;resizeLast=0;collapsible=1;marginBottom=0;swimlaneFillColor=#ffffff;rounded=0;shadow=0;comic=0;labelBackgroundColor=none;strokeWidth=1;fillColor=#d5e8d4;fontFamily=Verdana;fontSize=12;strokeColor=#82b366;" parent="1" vertex="1">
          <mxGeometry x="600" y="370" width="160" height="158" as="geometry" />
        </mxCell>
        <mxCell id="-t0i3O5oJkL6AfwVkczq-19" value="Stores game info." style="text;html=1;strokeColor=none;fillColor=none;align=left;verticalAlign=top;spacingLeft=4;spacingRight=4;whiteSpace=wrap;overflow=hidden;rotatable=0;points=[[0,0.5],[1,0.5]];portConstraint=eastwest;" parent="-t0i3O5oJkL6AfwVkczq-18" vertex="1">
          <mxGeometry y="26" width="160" height="44" as="geometry" />
        </mxCell>
        <mxCell id="-t0i3O5oJkL6AfwVkczq-21" value="" style="line;html=1;strokeWidth=1;fillColor=none;align=left;verticalAlign=middle;spacingTop=-1;spacingLeft=3;spacingRight=3;rotatable=0;labelPosition=right;points=[];portConstraint=eastwest;" parent="-t0i3O5oJkL6AfwVkczq-18" vertex="1">
          <mxGeometry y="70" width="160" height="8" as="geometry" />
        </mxCell>
        <mxCell id="8794p5J7D8gbGdw7qw-P-61" value="&lt;div&gt;SIZE&lt;br&gt;&lt;/div&gt;&lt;div&gt;SCREEN&lt;/div&gt;&lt;div&gt;CLOCK&lt;/div&gt;&lt;div&gt;FPS&lt;br&gt;&lt;/div&gt;&lt;div&gt;GFX&lt;br&gt;&lt;/div&gt;" style="text;whiteSpace=wrap;html=1;" parent="-t0i3O5oJkL6AfwVkczq-18" vertex="1">
          <mxGeometry y="78" width="160" height="80" as="geometry" />
        </mxCell>
        <mxCell id="eDm8jYXldDvQwBTFlyfI-8" style="edgeStyle=orthogonalEdgeStyle;rounded=0;orthogonalLoop=1;jettySize=auto;html=1;entryX=1;entryY=0.5;entryDx=0;entryDy=0;" parent="1" source="-t0i3O5oJkL6AfwVkczq-34" target="78961159f06e98e8-21" edge="1">
          <mxGeometry relative="1" as="geometry" />
        </mxCell>
        <mxCell id="-t0i3O5oJkL6AfwVkczq-34" value="Display" style="swimlane;html=1;fontStyle=1;align=center;verticalAlign=top;childLayout=stackLayout;horizontal=1;startSize=26;horizontalStack=0;resizeParent=1;resizeLast=0;collapsible=1;marginBottom=0;swimlaneFillColor=#ffffff;rounded=0;shadow=0;comic=0;labelBackgroundColor=none;strokeWidth=1;fillColor=#d5e8d4;fontFamily=Verdana;fontSize=12;strokeColor=#82b366;" parent="1" vertex="1">
          <mxGeometry x="730" y="10" width="160" height="127" as="geometry" />
        </mxCell>
        <mxCell id="-t0i3O5oJkL6AfwVkczq-35" value="Renders information based on current state." style="text;html=1;strokeColor=none;fillColor=none;align=left;verticalAlign=top;spacingLeft=4;spacingRight=4;whiteSpace=wrap;overflow=hidden;rotatable=0;points=[[0,0.5],[1,0.5]];portConstraint=eastwest;" parent="-t0i3O5oJkL6AfwVkczq-34" vertex="1">
          <mxGeometry y="26" width="160" height="44" as="geometry" />
        </mxCell>
        <mxCell id="RKAg7bWh1QvAr-ADB0N2-1" value="&lt;div&gt;Set Up&lt;/div&gt;&lt;div&gt;&lt;br&gt;&lt;/div&gt;" style="swimlane;html=1;fontStyle=1;align=center;verticalAlign=top;childLayout=stackLayout;horizontal=1;startSize=26;horizontalStack=0;resizeParent=1;resizeLast=0;collapsible=1;marginBottom=0;swimlaneFillColor=#ffffff;rounded=0;shadow=0;comic=0;labelBackgroundColor=none;strokeWidth=1;fillColor=#dae8fc;fontFamily=Verdana;fontSize=12;strokeColor=#6c8ebf;" parent="1" vertex="1">
          <mxGeometry x="940" y="332" width="160" height="190" as="geometry" />
        </mxCell>
        <mxCell id="RKAg7bWh1QvAr-ADB0N2-2" value="Runs functions to set up Pygame window and load resources." style="text;html=1;strokeColor=none;fillColor=none;align=left;verticalAlign=top;spacingLeft=4;spacingRight=4;whiteSpace=wrap;overflow=hidden;rotatable=0;points=[[0,0.5],[1,0.5]];portConstraint=eastwest;" parent="RKAg7bWh1QvAr-ADB0N2-1" vertex="1">
          <mxGeometry y="26" width="160" height="54" as="geometry" />
        </mxCell>
        <mxCell id="RKAg7bWh1QvAr-ADB0N2-4" value="" style="line;html=1;strokeWidth=1;fillColor=none;align=left;verticalAlign=middle;spacingTop=-1;spacingLeft=3;spacingRight=3;rotatable=0;labelPosition=right;points=[];portConstraint=eastwest;" parent="RKAg7bWh1QvAr-ADB0N2-1" vertex="1">
          <mxGeometry y="80" width="160" height="8" as="geometry" />
        </mxCell>
        <mxCell id="vRC7jIJlFKvEMgXPobcm-8" style="edgeStyle=orthogonalEdgeStyle;rounded=0;orthogonalLoop=1;jettySize=auto;html=1;" edge="1" parent="RKAg7bWh1QvAr-ADB0N2-1" source="RKAg7bWh1QvAr-ADB0N2-5">
          <mxGeometry relative="1" as="geometry">
            <mxPoint x="-180" y="139" as="targetPoint" />
          </mxGeometry>
        </mxCell>
        <mxCell id="RKAg7bWh1QvAr-ADB0N2-5" value="&lt;div&gt;pg.init()&lt;/div&gt;&lt;div&gt;caption&lt;/div&gt;&lt;div&gt;SIZE&lt;br&gt;&lt;/div&gt;&lt;div&gt;SCREEN&lt;/div&gt;&lt;div&gt;CLOCK&lt;br&gt;&lt;/div&gt;&lt;div&gt;GFX dict&lt;br&gt;&lt;/div&gt;" style="text;html=1;strokeColor=none;fillColor=none;align=left;verticalAlign=top;spacingLeft=4;spacingRight=4;whiteSpace=wrap;overflow=hidden;rotatable=0;points=[[0,0.5],[1,0.5]];portConstraint=eastwest;" parent="RKAg7bWh1QvAr-ADB0N2-1" vertex="1">
          <mxGeometry y="88" width="160" height="102" as="geometry" />
        </mxCell>
        <mxCell id="8794p5J7D8gbGdw7qw-P-55" style="edgeStyle=orthogonalEdgeStyle;rounded=0;orthogonalLoop=1;jettySize=auto;html=1;" parent="1" source="RKAg7bWh1QvAr-ADB0N2-8" target="RKAg7bWh1QvAr-ADB0N2-1" edge="1">
          <mxGeometry relative="1" as="geometry" />
        </mxCell>
        <mxCell id="RKAg7bWh1QvAr-ADB0N2-8" value="&lt;div&gt;Loaders&lt;/div&gt;&lt;div&gt;&lt;br&gt;&lt;/div&gt;" style="swimlane;html=1;fontStyle=1;align=center;verticalAlign=top;childLayout=stackLayout;horizontal=1;startSize=26;horizontalStack=0;resizeParent=1;resizeLast=0;collapsible=1;marginBottom=0;swimlaneFillColor=#ffffff;rounded=0;shadow=0;comic=0;labelBackgroundColor=none;strokeWidth=1;fillColor=#dae8fc;fontFamily=Verdana;fontSize=12;strokeColor=#6c8ebf;" parent="1" vertex="1">
          <mxGeometry x="940" y="180" width="160" height="127" as="geometry" />
        </mxCell>
        <mxCell id="RKAg7bWh1QvAr-ADB0N2-9" value="Commands to load resources." style="text;html=1;strokeColor=none;fillColor=none;align=left;verticalAlign=top;spacingLeft=4;spacingRight=4;whiteSpace=wrap;overflow=hidden;rotatable=0;points=[[0,0.5],[1,0.5]];portConstraint=eastwest;" parent="RKAg7bWh1QvAr-ADB0N2-8" vertex="1">
          <mxGeometry y="26" width="160" height="54" as="geometry" />
        </mxCell>
        <mxCell id="RKAg7bWh1QvAr-ADB0N2-10" value="" style="line;html=1;strokeWidth=1;fillColor=none;align=left;verticalAlign=middle;spacingTop=-1;spacingLeft=3;spacingRight=3;rotatable=0;labelPosition=right;points=[];portConstraint=eastwest;" parent="RKAg7bWh1QvAr-ADB0N2-8" vertex="1">
          <mxGeometry y="80" width="160" height="8" as="geometry" />
        </mxCell>
        <mxCell id="8794p5J7D8gbGdw7qw-P-54" style="edgeStyle=orthogonalEdgeStyle;rounded=0;orthogonalLoop=1;jettySize=auto;html=1;entryX=0.5;entryY=0;entryDx=0;entryDy=0;" parent="1" source="eDm8jYXldDvQwBTFlyfI-1" target="RKAg7bWh1QvAr-ADB0N2-8" edge="1">
          <mxGeometry relative="1" as="geometry" />
        </mxCell>
        <mxCell id="eDm8jYXldDvQwBTFlyfI-1" value="&lt;b&gt;resources&lt;br&gt;folder&lt;br&gt;&lt;/b&gt;" style="shape=datastore;whiteSpace=wrap;html=1;strokeColor=#006EAF;fillColor=#1ba1e2;fontColor=#ffffff;" parent="1" vertex="1">
          <mxGeometry x="975" y="10" width="90" height="87" as="geometry" />
        </mxCell>
        <mxCell id="eDm8jYXldDvQwBTFlyfI-37" value="" style="group" parent="1" vertex="1" connectable="0">
          <mxGeometry x="600" y="570" width="500" height="280" as="geometry" />
        </mxCell>
        <mxCell id="eDm8jYXldDvQwBTFlyfI-33" value="" style="shape=ext;double=1;rounded=0;whiteSpace=wrap;html=1;" parent="eDm8jYXldDvQwBTFlyfI-37" vertex="1">
          <mxGeometry width="492.9577464788732" height="280" as="geometry" />
        </mxCell>
        <mxCell id="-t0i3O5oJkL6AfwVkczq-24" value="Player" style="swimlane;html=1;fontStyle=1;align=center;verticalAlign=top;childLayout=stackLayout;horizontal=1;startSize=26;horizontalStack=0;resizeParent=1;resizeLast=0;collapsible=1;marginBottom=0;swimlaneFillColor=#ffffff;rounded=0;shadow=0;comic=0;labelBackgroundColor=none;strokeWidth=1;fillColor=#e1d5e7;fontFamily=Verdana;fontSize=12;strokeColor=#9673a6;" parent="eDm8jYXldDvQwBTFlyfI-37" vertex="1">
          <mxGeometry x="126.76056338028168" y="10" width="112.67605633802816" height="127" as="geometry">
            <mxRectangle x="126.76056338028168" y="10" width="80" height="30" as="alternateBounds" />
          </mxGeometry>
        </mxCell>
        <mxCell id="-t0i3O5oJkL6AfwVkczq-27" value="" style="line;html=1;strokeWidth=1;fillColor=none;align=left;verticalAlign=middle;spacingTop=-1;spacingLeft=3;spacingRight=3;rotatable=0;labelPosition=right;points=[];portConstraint=eastwest;" parent="-t0i3O5oJkL6AfwVkczq-24" vertex="1">
          <mxGeometry y="26" width="112.67605633802816" height="8" as="geometry" />
        </mxCell>
        <mxCell id="-t0i3O5oJkL6AfwVkczq-39" value="Spirit" style="swimlane;html=1;fontStyle=1;align=center;verticalAlign=top;childLayout=stackLayout;horizontal=1;startSize=26;horizontalStack=0;resizeParent=1;resizeLast=0;collapsible=1;marginBottom=0;swimlaneFillColor=#ffffff;rounded=0;shadow=0;comic=0;labelBackgroundColor=none;strokeWidth=1;fillColor=#e1d5e7;fontFamily=Verdana;fontSize=12;strokeColor=#9673a6;" parent="eDm8jYXldDvQwBTFlyfI-37" vertex="1">
          <mxGeometry x="7.04225352112676" y="10" width="112.67605633802816" height="127" as="geometry">
            <mxRectangle x="7.04225352112676" y="10" width="80" height="30" as="alternateBounds" />
          </mxGeometry>
        </mxCell>
        <mxCell id="-t0i3O5oJkL6AfwVkczq-42" value="" style="line;html=1;strokeWidth=1;fillColor=none;align=left;verticalAlign=middle;spacingTop=-1;spacingLeft=3;spacingRight=3;rotatable=0;labelPosition=right;points=[];portConstraint=eastwest;" parent="-t0i3O5oJkL6AfwVkczq-39" vertex="1">
          <mxGeometry y="26" width="112.67605633802816" height="8" as="geometry" />
        </mxCell>
        <mxCell id="-t0i3O5oJkL6AfwVkczq-44" value="Grid Square" style="swimlane;html=1;fontStyle=1;align=center;verticalAlign=top;childLayout=stackLayout;horizontal=1;startSize=26;horizontalStack=0;resizeParent=1;resizeLast=0;collapsible=1;marginBottom=0;swimlaneFillColor=#ffffff;rounded=0;shadow=0;comic=0;labelBackgroundColor=none;strokeWidth=1;fillColor=#e1d5e7;fontFamily=Verdana;fontSize=12;strokeColor=#9673a6;" parent="eDm8jYXldDvQwBTFlyfI-37" vertex="1">
          <mxGeometry x="246.4788732394366" y="10" width="112.67605633802816" height="127" as="geometry">
            <mxRectangle x="246.4788732394366" y="10" width="120" height="30" as="alternateBounds" />
          </mxGeometry>
        </mxCell>
        <mxCell id="-t0i3O5oJkL6AfwVkczq-47" value="" style="line;html=1;strokeWidth=1;fillColor=none;align=left;verticalAlign=middle;spacingTop=-1;spacingLeft=3;spacingRight=3;rotatable=0;labelPosition=right;points=[];portConstraint=eastwest;" parent="-t0i3O5oJkL6AfwVkczq-44" vertex="1">
          <mxGeometry y="26" width="112.67605633802816" height="8" as="geometry" />
        </mxCell>
        <mxCell id="-t0i3O5oJkL6AfwVkczq-49" value="Buttons" style="swimlane;html=1;fontStyle=1;align=center;verticalAlign=top;childLayout=stackLayout;horizontal=1;startSize=26;horizontalStack=0;resizeParent=1;resizeLast=0;collapsible=1;marginBottom=0;swimlaneFillColor=#ffffff;rounded=0;shadow=0;comic=0;labelBackgroundColor=none;strokeWidth=1;fillColor=#e1d5e7;fontFamily=Verdana;fontSize=12;strokeColor=#9673a6;" parent="eDm8jYXldDvQwBTFlyfI-37" vertex="1">
          <mxGeometry x="7.04225352112676" y="146.5" width="112.67605633802816" height="127" as="geometry">
            <mxRectangle x="7.04225352112676" y="146.5" width="90" height="30" as="alternateBounds" />
          </mxGeometry>
        </mxCell>
        <mxCell id="-t0i3O5oJkL6AfwVkczq-52" value="" style="line;html=1;strokeWidth=1;fillColor=none;align=left;verticalAlign=middle;spacingTop=-1;spacingLeft=3;spacingRight=3;rotatable=0;labelPosition=right;points=[];portConstraint=eastwest;" parent="-t0i3O5oJkL6AfwVkczq-49" vertex="1">
          <mxGeometry y="26" width="112.67605633802816" height="8" as="geometry" />
        </mxCell>
        <mxCell id="-t0i3O5oJkL6AfwVkczq-54" value="Unit" style="swimlane;html=1;fontStyle=1;align=center;verticalAlign=top;childLayout=stackLayout;horizontal=1;startSize=26;horizontalStack=0;resizeParent=1;resizeLast=0;collapsible=1;marginBottom=0;swimlaneFillColor=#ffffff;rounded=0;shadow=0;comic=0;labelBackgroundColor=none;strokeWidth=1;fillColor=#e1d5e7;fontFamily=Verdana;fontSize=12;strokeColor=#9673a6;" parent="eDm8jYXldDvQwBTFlyfI-37" vertex="1">
          <mxGeometry x="126.76056338028168" y="146.5" width="112.67605633802816" height="127" as="geometry" />
        </mxCell>
        <mxCell id="-t0i3O5oJkL6AfwVkczq-57" value="" style="line;html=1;strokeWidth=1;fillColor=none;align=left;verticalAlign=middle;spacingTop=-1;spacingLeft=3;spacingRight=3;rotatable=0;labelPosition=right;points=[];portConstraint=eastwest;" parent="-t0i3O5oJkL6AfwVkczq-54" vertex="1">
          <mxGeometry y="26" width="112.67605633802816" height="8" as="geometry" />
        </mxCell>
        <mxCell id="eDm8jYXldDvQwBTFlyfI-15" value="Object (Parent)" style="swimlane;html=1;fontStyle=1;align=center;verticalAlign=top;childLayout=stackLayout;horizontal=1;startSize=26;horizontalStack=0;resizeParent=1;resizeLast=0;collapsible=1;marginBottom=0;swimlaneFillColor=#ffffff;rounded=0;shadow=0;comic=0;labelBackgroundColor=none;strokeWidth=1;fillColor=#e1d5e7;fontFamily=Verdana;fontSize=12;strokeColor=#9673a6;" parent="eDm8jYXldDvQwBTFlyfI-37" vertex="1">
          <mxGeometry x="373.2394366197183" y="120" width="112.67605633802816" height="127" as="geometry" />
        </mxCell>
        <mxCell id="eDm8jYXldDvQwBTFlyfI-16" value="Base class for all sprites in this class." style="text;html=1;strokeColor=none;fillColor=none;align=left;verticalAlign=top;spacingLeft=4;spacingRight=4;whiteSpace=wrap;overflow=hidden;rotatable=0;points=[[0,0.5],[1,0.5]];portConstraint=eastwest;" parent="eDm8jYXldDvQwBTFlyfI-15" vertex="1">
          <mxGeometry y="26" width="112.67605633802816" height="54" as="geometry" />
        </mxCell>
        <mxCell id="eDm8jYXldDvQwBTFlyfI-18" value="" style="line;html=1;strokeWidth=1;fillColor=none;align=left;verticalAlign=middle;spacingTop=-1;spacingLeft=3;spacingRight=3;rotatable=0;labelPosition=right;points=[];portConstraint=eastwest;" parent="eDm8jYXldDvQwBTFlyfI-15" vertex="1">
          <mxGeometry y="80" width="112.67605633802816" height="8" as="geometry" />
        </mxCell>
        <mxCell id="eDm8jYXldDvQwBTFlyfI-36" value="&lt;h1 align=&quot;left&quot;&gt;objects&lt;/h1&gt;&lt;p align=&quot;left&quot;&gt;Stores templates for all sprite types used by game.&lt;br&gt;&lt;/p&gt;" style="text;html=1;strokeColor=none;fillColor=none;spacing=5;spacingTop=-20;whiteSpace=wrap;overflow=hidden;rounded=0;" parent="eDm8jYXldDvQwBTFlyfI-37" vertex="1">
          <mxGeometry x="366.2" y="10" width="123.8" height="110" as="geometry" />
        </mxCell>
        <mxCell id="8794p5J7D8gbGdw7qw-P-35" value="" style="group" parent="1" vertex="1" connectable="0">
          <mxGeometry x="50" y="570" width="500" height="280" as="geometry" />
        </mxCell>
        <mxCell id="8794p5J7D8gbGdw7qw-P-36" value="" style="shape=ext;double=1;rounded=0;whiteSpace=wrap;html=1;" parent="8794p5J7D8gbGdw7qw-P-35" vertex="1">
          <mxGeometry width="492.9577464788732" height="280" as="geometry" />
        </mxCell>
        <mxCell id="8794p5J7D8gbGdw7qw-P-37" value="" style="swimlane;html=1;fontStyle=1;align=center;verticalAlign=top;childLayout=stackLayout;horizontal=1;startSize=26;horizontalStack=0;resizeParent=1;resizeLast=0;collapsible=1;marginBottom=0;swimlaneFillColor=#ffffff;rounded=0;shadow=0;comic=0;labelBackgroundColor=none;strokeWidth=1;fillColor=#f8cecc;fontFamily=Verdana;fontSize=12;strokeColor=#b85450;" parent="8794p5J7D8gbGdw7qw-P-35" vertex="1">
          <mxGeometry x="126.76056338028168" y="10" width="112.67605633802816" height="127" as="geometry" />
        </mxCell>
        <mxCell id="8794p5J7D8gbGdw7qw-P-38" value="" style="line;html=1;strokeWidth=1;fillColor=none;align=left;verticalAlign=middle;spacingTop=-1;spacingLeft=3;spacingRight=3;rotatable=0;labelPosition=right;points=[];portConstraint=eastwest;" parent="8794p5J7D8gbGdw7qw-P-37" vertex="1">
          <mxGeometry y="26" width="112.67605633802816" height="8" as="geometry" />
        </mxCell>
        <mxCell id="8794p5J7D8gbGdw7qw-P-39" value="Start" style="swimlane;html=1;fontStyle=1;align=center;verticalAlign=top;childLayout=stackLayout;horizontal=1;startSize=26;horizontalStack=0;resizeParent=1;resizeLast=0;collapsible=1;marginBottom=0;swimlaneFillColor=#ffffff;rounded=0;shadow=0;comic=0;labelBackgroundColor=none;strokeWidth=1;fillColor=#f8cecc;fontFamily=Verdana;fontSize=12;strokeColor=#b85450;" parent="8794p5J7D8gbGdw7qw-P-35" vertex="1">
          <mxGeometry x="7.04225352112676" y="10" width="112.67605633802816" height="127" as="geometry" />
        </mxCell>
        <mxCell id="8794p5J7D8gbGdw7qw-P-40" value="" style="line;html=1;strokeWidth=1;fillColor=none;align=left;verticalAlign=middle;spacingTop=-1;spacingLeft=3;spacingRight=3;rotatable=0;labelPosition=right;points=[];portConstraint=eastwest;" parent="8794p5J7D8gbGdw7qw-P-39" vertex="1">
          <mxGeometry y="26" width="112.67605633802816" height="8" as="geometry" />
        </mxCell>
        <mxCell id="8794p5J7D8gbGdw7qw-P-51" value="Start menu for game." style="text;html=1;strokeColor=none;fillColor=none;align=left;verticalAlign=top;spacingLeft=4;spacingRight=4;whiteSpace=wrap;overflow=hidden;rotatable=0;points=[[0,0.5],[1,0.5]];portConstraint=eastwest;" parent="8794p5J7D8gbGdw7qw-P-39" vertex="1">
          <mxGeometry y="34" width="112.67605633802816" height="44" as="geometry" />
        </mxCell>
        <mxCell id="8794p5J7D8gbGdw7qw-P-41" value="" style="swimlane;html=1;fontStyle=1;align=center;verticalAlign=top;childLayout=stackLayout;horizontal=1;startSize=26;horizontalStack=0;resizeParent=1;resizeLast=0;collapsible=1;marginBottom=0;swimlaneFillColor=#ffffff;rounded=0;shadow=0;comic=0;labelBackgroundColor=none;strokeWidth=1;fillColor=#f8cecc;fontFamily=Verdana;fontSize=12;strokeColor=#b85450;" parent="8794p5J7D8gbGdw7qw-P-35" vertex="1">
          <mxGeometry x="246.4788732394366" y="10" width="112.67605633802816" height="127" as="geometry">
            <mxRectangle x="246.4788732394366" y="10" width="50" height="40" as="alternateBounds" />
          </mxGeometry>
        </mxCell>
        <mxCell id="8794p5J7D8gbGdw7qw-P-42" value="" style="line;html=1;strokeWidth=1;fillColor=none;align=left;verticalAlign=middle;spacingTop=-1;spacingLeft=3;spacingRight=3;rotatable=0;labelPosition=right;points=[];portConstraint=eastwest;" parent="8794p5J7D8gbGdw7qw-P-41" vertex="1">
          <mxGeometry y="26" width="112.67605633802816" height="8" as="geometry" />
        </mxCell>
        <mxCell id="8794p5J7D8gbGdw7qw-P-43" value="" style="swimlane;html=1;fontStyle=1;align=center;verticalAlign=top;childLayout=stackLayout;horizontal=1;startSize=26;horizontalStack=0;resizeParent=1;resizeLast=0;collapsible=1;marginBottom=0;swimlaneFillColor=#ffffff;rounded=0;shadow=0;comic=0;labelBackgroundColor=none;strokeWidth=1;fillColor=#f8cecc;fontFamily=Verdana;fontSize=12;strokeColor=#b85450;" parent="8794p5J7D8gbGdw7qw-P-35" vertex="1">
          <mxGeometry x="7.04225352112676" y="146.5" width="112.67605633802816" height="127" as="geometry" />
        </mxCell>
        <mxCell id="8794p5J7D8gbGdw7qw-P-44" value="" style="line;html=1;strokeWidth=1;fillColor=none;align=left;verticalAlign=middle;spacingTop=-1;spacingLeft=3;spacingRight=3;rotatable=0;labelPosition=right;points=[];portConstraint=eastwest;" parent="8794p5J7D8gbGdw7qw-P-43" vertex="1">
          <mxGeometry y="26" width="112.67605633802816" height="8" as="geometry" />
        </mxCell>
        <mxCell id="8794p5J7D8gbGdw7qw-P-45" value="" style="swimlane;html=1;fontStyle=1;align=center;verticalAlign=top;childLayout=stackLayout;horizontal=1;startSize=26;horizontalStack=0;resizeParent=1;resizeLast=0;collapsible=1;marginBottom=0;swimlaneFillColor=#ffffff;rounded=0;shadow=0;comic=0;labelBackgroundColor=none;strokeWidth=1;fillColor=#f8cecc;fontFamily=Verdana;fontSize=12;strokeColor=#b85450;" parent="8794p5J7D8gbGdw7qw-P-35" vertex="1">
          <mxGeometry x="126.76056338028168" y="146.5" width="112.67605633802816" height="127" as="geometry" />
        </mxCell>
        <mxCell id="8794p5J7D8gbGdw7qw-P-46" value="" style="line;html=1;strokeWidth=1;fillColor=none;align=left;verticalAlign=middle;spacingTop=-1;spacingLeft=3;spacingRight=3;rotatable=0;labelPosition=right;points=[];portConstraint=eastwest;" parent="8794p5J7D8gbGdw7qw-P-45" vertex="1">
          <mxGeometry y="26" width="112.67605633802816" height="8" as="geometry" />
        </mxCell>
        <mxCell id="8794p5J7D8gbGdw7qw-P-47" value="states (Parent)" style="swimlane;html=1;fontStyle=1;align=center;verticalAlign=top;childLayout=stackLayout;horizontal=1;startSize=26;horizontalStack=0;resizeParent=1;resizeLast=0;collapsible=1;marginBottom=0;swimlaneFillColor=#ffffff;rounded=0;shadow=0;comic=0;labelBackgroundColor=none;strokeWidth=1;fillColor=#f8cecc;fontFamily=Verdana;fontSize=12;strokeColor=#b85450;" parent="8794p5J7D8gbGdw7qw-P-35" vertex="1">
          <mxGeometry x="373.2394366197183" y="120" width="112.67605633802816" height="127" as="geometry" />
        </mxCell>
        <mxCell id="8794p5J7D8gbGdw7qw-P-48" value="Base class for all states." style="text;html=1;strokeColor=none;fillColor=none;align=left;verticalAlign=top;spacingLeft=4;spacingRight=4;whiteSpace=wrap;overflow=hidden;rotatable=0;points=[[0,0.5],[1,0.5]];portConstraint=eastwest;" parent="8794p5J7D8gbGdw7qw-P-47" vertex="1">
          <mxGeometry y="26" width="112.67605633802816" height="54" as="geometry" />
        </mxCell>
        <mxCell id="8794p5J7D8gbGdw7qw-P-49" value="" style="line;html=1;strokeWidth=1;fillColor=none;align=left;verticalAlign=middle;spacingTop=-1;spacingLeft=3;spacingRight=3;rotatable=0;labelPosition=right;points=[];portConstraint=eastwest;" parent="8794p5J7D8gbGdw7qw-P-47" vertex="1">
          <mxGeometry y="80" width="112.67605633802816" height="8" as="geometry" />
        </mxCell>
        <mxCell id="8794p5J7D8gbGdw7qw-P-50" value="&lt;h1 align=&quot;left&quot;&gt;states&lt;/h1&gt;&lt;p align=&quot;left&quot;&gt;Stores and sets up templates for all states&lt;br&gt;&lt;/p&gt;" style="text;html=1;strokeColor=none;fillColor=none;spacing=5;spacingTop=-20;whiteSpace=wrap;overflow=hidden;rounded=0;" parent="8794p5J7D8gbGdw7qw-P-35" vertex="1">
          <mxGeometry x="366.2" y="10" width="123.8" height="110" as="geometry" />
        </mxCell>
        <mxCell id="8794p5J7D8gbGdw7qw-P-52" style="edgeStyle=orthogonalEdgeStyle;rounded=0;orthogonalLoop=1;jettySize=auto;html=1;" parent="1" source="eDm8jYXldDvQwBTFlyfI-33" target="8794p5J7D8gbGdw7qw-P-36" edge="1">
          <mxGeometry relative="1" as="geometry" />
        </mxCell>
        <mxCell id="8794p5J7D8gbGdw7qw-P-53" style="edgeStyle=orthogonalEdgeStyle;rounded=0;orthogonalLoop=1;jettySize=auto;html=1;entryX=0.513;entryY=1.01;entryDx=0;entryDy=0;entryPerimeter=0;" parent="1" source="8794p5J7D8gbGdw7qw-P-41" target="-t0i3O5oJkL6AfwVkczq-7" edge="1">
          <mxGeometry relative="1" as="geometry" />
        </mxCell>
        <mxCell id="vRC7jIJlFKvEMgXPobcm-4" style="edgeStyle=orthogonalEdgeStyle;rounded=0;orthogonalLoop=1;jettySize=auto;html=1;entryX=-0.019;entryY=0.63;entryDx=0;entryDy=0;entryPerimeter=0;" edge="1" parent="1" source="vRC7jIJlFKvEMgXPobcm-1" target="RKAg7bWh1QvAr-ADB0N2-2">
          <mxGeometry relative="1" as="geometry" />
        </mxCell>
        <mxCell id="vRC7jIJlFKvEMgXPobcm-1" value="Config" style="swimlane;html=1;fontStyle=1;align=center;verticalAlign=top;childLayout=stackLayout;horizontal=1;startSize=26;horizontalStack=0;resizeParent=1;resizeLast=0;collapsible=1;marginBottom=0;swimlaneFillColor=#ffffff;rounded=0;shadow=0;comic=0;labelBackgroundColor=none;strokeWidth=1;fillColor=#dae8fc;fontFamily=Verdana;fontSize=12;strokeColor=#6c8ebf;" vertex="1" parent="1">
          <mxGeometry x="770" y="180" width="160" height="127" as="geometry" />
        </mxCell>
        <mxCell id="vRC7jIJlFKvEMgXPobcm-2" value="Stores values/information to start app such as paths and screen size." style="text;html=1;strokeColor=none;fillColor=none;align=left;verticalAlign=top;spacingLeft=4;spacingRight=4;whiteSpace=wrap;overflow=hidden;rotatable=0;points=[[0,0.5],[1,0.5]];portConstraint=eastwest;" vertex="1" parent="vRC7jIJlFKvEMgXPobcm-1">
          <mxGeometry y="26" width="160" height="54" as="geometry" />
        </mxCell>
        <mxCell id="vRC7jIJlFKvEMgXPobcm-3" value="" style="line;html=1;strokeWidth=1;fillColor=none;align=left;verticalAlign=middle;spacingTop=-1;spacingLeft=3;spacingRight=3;rotatable=0;labelPosition=right;points=[];portConstraint=eastwest;" vertex="1" parent="vRC7jIJlFKvEMgXPobcm-1">
          <mxGeometry y="80" width="160" height="8" as="geometry" />
        </mxCell>
        <mxCell id="vRC7jIJlFKvEMgXPobcm-7" style="edgeStyle=orthogonalEdgeStyle;rounded=0;orthogonalLoop=1;jettySize=auto;html=1;" edge="1" parent="1" source="-t0i3O5oJkL6AfwVkczq-19">
          <mxGeometry relative="1" as="geometry">
            <mxPoint x="478" y="570" as="targetPoint" />
          </mxGeometry>
        </mxCell>
      </root>
    </mxGraphModel>
  </diagram>
</mxfile>
